<svg xmlns="http://www.w3.org/2000/svg" width="960" height="500" style="font-size: 24px;"><g transform="translate(120,20)"><g class="x axis" transform="translate(0,450)"><g class="tick" style="opacity: 1;" transform="translate(63,0)"><line y2="0" x2="0"></line><text dy=".71em" style="text-anchor: middle;" y="3" x="0">protobuf</text></g><g class="tick" style="opacity: 1;" transform="translate(174,0)"><line y2="0" x2="0"></line><text dy=".71em" style="text-anchor: middle;" y="3" x="0">msgpack</text></g><g class="tick" style="opacity: 1;" transform="translate(285,0)"><line y2="0" x2="0"></line><text dy=".71em" style="text-anchor: middle;" y="3" x="0">avro</text></g><g class="tick" style="opacity: 1;" transform="translate(396,0)"><line y2="0" x2="0"></line><text dy=".71em" style="text-anchor: middle;" y="3" x="0">bencode</text></g><g class="tick" style="opacity: 1;" transform="translate(507,0)"><line y2="0" x2="0"></line><text dy=".71em" style="text-anchor: middle;" y="3" x="0">bson</text></g><g class="tick" style="opacity: 1;" transform="translate(618,0)"><line y2="0" x2="0"></line><text dy=".71em" style="text-anchor: middle;" y="3" x="0">xml</text></g><path class="domain" d="M0,0V0H680V0"></path></g><g class="y axis"><g class="tick" style="opacity: 1;" transform="translate(0,450)"><line x2="-6" y2="0"></line><text dy=".32em" style="text-anchor: end;" x="-9" y="0">0.0000</text></g><g class="tick" style="opacity: 1;" transform="translate(0,405)"><line x2="-6" y2="0"></line><text dy=".32em" style="text-anchor: end;" x="-9" y="0">0.0005</text></g><g class="tick" style="opacity: 1;" transform="translate(0,360)"><line x2="-6" y2="0"></line><text dy=".32em" style="text-anchor: end;" x="-9" y="0">0.0010</text></g><g class="tick" style="opacity: 1;" transform="translate(0,315)"><line x2="-6" y2="0"></line><text dy=".32em" style="text-anchor: end;" x="-9" y="0">0.0015</text></g><g class="tick" style="opacity: 1;" transform="translate(0,270)"><line x2="-6" y2="0"></line><text dy=".32em" style="text-anchor: end;" x="-9" y="0">0.0020</text></g><g class="tick" style="opacity: 1;" transform="translate(0,225)"><line x2="-6" y2="0"></line><text dy=".32em" style="text-anchor: end;" x="-9" y="0">0.0025</text></g><g class="tick" style="opacity: 1;" transform="translate(0,180)"><line x2="-6" y2="0"></line><text dy=".32em" style="text-anchor: end;" x="-9" y="0">0.0030</text></g><g class="tick" style="opacity: 1;" transform="translate(0,135.00000000000003)"><line x2="-6" y2="0"></line><text dy=".32em" style="text-anchor: end;" x="-9" y="0">0.0035</text></g><g class="tick" style="opacity: 1;" transform="translate(0,89.99999999999999)"><line x2="-6" y2="0"></line><text dy=".32em" style="text-anchor: end;" x="-9" y="0">0.0040</text></g><g class="tick" style="opacity: 1;" transform="translate(0,45.00000000000004)"><line x2="-6" y2="0"></line><text dy=".32em" style="text-anchor: end;" x="-9" y="0">0.0045</text></g><g class="tick" style="opacity: 1;" transform="translate(0,0)"><line x2="-6" y2="0"></line><text dy=".32em" style="text-anchor: end;" x="-9" y="0">0.0050</text></g><path class="domain" d="M-6,0H0V450H-6"></path><text transform="rotate(-90)" y="6" dy=".71em" style="text-anchor: end; font-weight: bold;">ms</text></g><g class="g" transform="translate(13,0)"><rect width="100" x="0" style="fill: #ca0020;" y="438.640496590313" height="5.223936720556935"></rect></g><g class="g" transform="translate(124,0)"><rect width="100" x="0" style="fill: #ca0020;" y="428.1891216240605" height="15.675311686809437"></rect></g><g class="g" transform="translate(235,0)"><rect width="100" x="0" style="fill: #ca0020;" y="418.9630916469152" height="24.901341663954724"></rect></g><g class="g" transform="translate(346,0)"><rect width="100" x="0" style="fill: #ca0020;" y="8.812771560237076" height="435.05166175063283"></rect></g><g class="g" transform="translate(457,0)"><rect width="100" x="0" style="fill: #ca0020;" y="429.9745451823014" height="13.889888128568487"></rect></g><g class="g" transform="translate(568,0)"><rect width="100" x="0" style="fill: #ca0020;" y="443.8644333108699" height="3.8279506824096075"></rect></g><rect width="680" height="2" style="fill: #0000FF;" y="442.8644333108699"></rect><text x="680" y="437.8644333108699">JSON
 0.00006817296321255679</text><g class="legend" transform="translate(0,0)"><rect x="662" width="18" height="18" style="fill: #ca0020;"></rect><text x="656" y="9" dy=".35em" style="text-anchor: end;">Encoding 10K</text></g></g></svg>