<svg xmlns="http://www.w3.org/2000/svg" width="960" height="500" style="font-size: 24px;"><g transform="translate(120,20)"><g class="x axis" transform="translate(0,450)"><g class="tick" transform="translate(55,0)" style="opacity: 1;"><line y2="0" x2="0"></line><text dy=".71em" y="3" x="0" style="text-anchor: middle;">avro</text></g><g class="tick" transform="translate(150,0)" style="opacity: 1;"><line y2="0" x2="0"></line><text dy=".71em" y="3" x="0" style="text-anchor: middle;">bencode</text></g><g class="tick" transform="translate(245,0)" style="opacity: 1;"><line y2="0" x2="0"></line><text dy=".71em" y="3" x="0" style="text-anchor: middle;">bson</text></g><g class="tick" transform="translate(340,0)" style="opacity: 1;"><line y2="0" x2="0"></line><text dy=".71em" y="3" x="0" style="text-anchor: middle;">gzip</text></g><g class="tick" transform="translate(435,0)" style="opacity: 1;"><line y2="0" x2="0"></line><text dy=".71em" y="3" x="0" style="text-anchor: middle;">msgpack</text></g><g class="tick" transform="translate(530,0)" style="opacity: 1;"><line y2="0" x2="0"></line><text dy=".71em" y="3" x="0" style="text-anchor: middle;">protobuf</text></g><g class="tick" transform="translate(625,0)" style="opacity: 1;"><line y2="0" x2="0"></line><text dy=".71em" y="3" x="0" style="text-anchor: middle;">xml</text></g><path class="domain" d="M0,0V0H680V0"></path></g><g class="y axis" style="opacity: 1;"><g class="tick" transform="translate(0,450)" style="opacity: 1;"><line x2="-6" y2="0"></line><text dy=".32em" x="-9" y="0" style="text-anchor: end;">0</text></g><g class="tick" transform="translate(0,396.55531168942224)" style="opacity: 1;"><line x2="-6" y2="0"></line><text dy=".32em" x="-9" y="0" style="text-anchor: end;">50,000</text></g><g class="tick" transform="translate(0,343.1106233788444)" style="opacity: 1;"><line x2="-6" y2="0"></line><text dy=".32em" x="-9" y="0" style="text-anchor: end;">100,000</text></g><g class="tick" transform="translate(0,289.66593506826666)" style="opacity: 1;"><line x2="-6" y2="0"></line><text dy=".32em" x="-9" y="0" style="text-anchor: end;">150,000</text></g><g class="tick" transform="translate(0,236.2212467576889)" style="opacity: 1;"><line x2="-6" y2="0"></line><text dy=".32em" x="-9" y="0" style="text-anchor: end;">200,000</text></g><g class="tick" transform="translate(0,182.7765584471111)" style="opacity: 1;"><line x2="-6" y2="0"></line><text dy=".32em" x="-9" y="0" style="text-anchor: end;">250,000</text></g><g class="tick" transform="translate(0,129.33187013653338)" style="opacity: 1;"><line x2="-6" y2="0"></line><text dy=".32em" x="-9" y="0" style="text-anchor: end;">300,000</text></g><g class="tick" transform="translate(0,75.8871818259556)" style="opacity: 1;"><line x2="-6" y2="0"></line><text dy=".32em" x="-9" y="0" style="text-anchor: end;">350,000</text></g><g class="tick" transform="translate(0,22.442493515377805)" style="opacity: 1;"><line x2="-6" y2="0"></line><text dy=".32em" x="-9" y="0" style="text-anchor: end;">400,000</text></g><path class="domain" d="M-6,0H0V450H-6"></path><text transform="rotate(-90)" y="6" dy=".71em" style="text-anchor: end; font-weight: bold;">bytes</text></g><g class="g" transform="translate(12,0)"><rect width="86" x="0" y="238.03409058518372" height="211.96590941481628" style="fill: rgb(202, 0, 32);"></rect></g><g class="g" transform="translate(107,0)"><rect width="86" x="0" y="383.29461562580167" height="66.70538437419833" style="fill: rgb(202, 0, 32);"></rect></g><g class="g" transform="translate(202,0)"><rect width="86" x="0" y="149.9166262862355" height="300.0833737137645" style="fill: rgb(202, 0, 32);"></rect></g><g class="g" transform="translate(297,0)"><rect width="86" x="0" y="0" height="450" style="fill: rgb(202, 0, 32);"></rect></g><g class="g" transform="translate(392,0)"><rect width="86" x="0" y="131.89935296297352" height="318.1006470370265" style="fill: rgb(202, 0, 32);"></rect></g><g class="g" transform="translate(487,0)"><rect width="86" x="0" y="200.2358692244107" height="249.7641307755893" style="fill: rgb(202, 0, 32);"></rect></g><g class="g" transform="translate(582,0)"><rect width="86" x="0" y="189.09478949918767" height="260.90521050081236" style="fill: rgb(202, 0, 32);"></rect></g><g class="legend" transform="translate(0,0)" style="opacity: 1;"><rect x="662" width="18" height="18" style="fill: rgb(202, 0, 32);"></rect><text x="656" y="9" dy=".35em" style="text-anchor: end;">Uncompressed</text></g></g></svg>