<svg xmlns="http://www.w3.org/2000/svg" width="960" height="500" style="font-size: 24px;"><g transform="translate(120,20)"><g class="x axis" transform="translate(0,450)"><g class="tick" style="opacity: 1;" transform="translate(63,0)"><line y2="0" x2="0"></line><text dy=".71em" style="text-anchor: middle;" y="3" x="0">protobuf</text></g><g class="tick" style="opacity: 1;" transform="translate(174,0)"><line y2="0" x2="0"></line><text dy=".71em" style="text-anchor: middle;" y="3" x="0">msgpack</text></g><g class="tick" style="opacity: 1;" transform="translate(285,0)"><line y2="0" x2="0"></line><text dy=".71em" style="text-anchor: middle;" y="3" x="0">avro</text></g><g class="tick" style="opacity: 1;" transform="translate(396,0)"><line y2="0" x2="0"></line><text dy=".71em" style="text-anchor: middle;" y="3" x="0">bencode</text></g><g class="tick" style="opacity: 1;" transform="translate(507,0)"><line y2="0" x2="0"></line><text dy=".71em" style="text-anchor: middle;" y="3" x="0">bson</text></g><g class="tick" style="opacity: 1;" transform="translate(618,0)"><line y2="0" x2="0"></line><text dy=".71em" style="text-anchor: middle;" y="3" x="0">xml</text></g><path class="domain" d="M0,0V0H680V0"></path></g><g class="y axis"><g class="tick" style="opacity: 1;" transform="translate(0,450)"><line x2="-6" y2="0"></line><text dy=".32em" style="text-anchor: end;" x="-9" y="0">0.0000</text></g><g class="tick" style="opacity: 1;" transform="translate(0,393.75)"><line x2="-6" y2="0"></line><text dy=".32em" style="text-anchor: end;" x="-9" y="0">0.0005</text></g><g class="tick" style="opacity: 1;" transform="translate(0,337.5)"><line x2="-6" y2="0"></line><text dy=".32em" style="text-anchor: end;" x="-9" y="0">0.0010</text></g><g class="tick" style="opacity: 1;" transform="translate(0,281.25)"><line x2="-6" y2="0"></line><text dy=".32em" style="text-anchor: end;" x="-9" y="0">0.0015</text></g><g class="tick" style="opacity: 1;" transform="translate(0,225)"><line x2="-6" y2="0"></line><text dy=".32em" style="text-anchor: end;" x="-9" y="0">0.0020</text></g><g class="tick" style="opacity: 1;" transform="translate(0,168.75)"><line x2="-6" y2="0"></line><text dy=".32em" style="text-anchor: end;" x="-9" y="0">0.0025</text></g><g class="tick" style="opacity: 1;" transform="translate(0,112.5)"><line x2="-6" y2="0"></line><text dy=".32em" style="text-anchor: end;" x="-9" y="0">0.0030</text></g><g class="tick" style="opacity: 1;" transform="translate(0,56.25)"><line x2="-6" y2="0"></line><text dy=".32em" style="text-anchor: end;" x="-9" y="0">0.0035</text></g><g class="tick" style="opacity: 1;" transform="translate(0,0)"><line x2="-6" y2="0"></line><text dy=".32em" style="text-anchor: end;" x="-9" y="0">0.0040</text></g><path class="domain" d="M-6,0H0V450H-6"></path><text transform="rotate(-90)" y="6" dy=".71em" style="text-anchor: end; font-weight: bold;">ms</text></g><g class="g" transform="translate(13,0)"><rect width="100" x="0" style="fill: #ca0020;" y="370.33879596243656" height="31.736762364956405"></rect></g><g class="g" transform="translate(124,0)"><rect width="100" x="0" style="fill: #ca0020;" y="283.6404295100732" height="118.43512881731976"></rect></g><g class="g" transform="translate(235,0)"><rect width="100" x="0" style="fill: #ca0020;" y="371.0047107325313" height="31.070847594861675"></rect></g><g class="g" transform="translate(346,0)"><rect width="100" x="0" style="fill: #ca0020;" y="33.84368758597889" height="368.23187074141407"></rect></g><g class="g" transform="translate(457,0)"><rect width="100" x="0" style="fill: #ca0020;" y="109.12472881493512" height="292.95082951245786"></rect></g><g class="g" transform="translate(568,0)"><rect width="100" x="0" style="fill: #ca0020;" y="402.07555832739297" height="47.32708558157253"></rect></g><rect width="680" height="2" style="fill: #0000FF;" y="401.07555832739297"></rect><text x="680" y="396.07555832739297">JSON 
 0.00042599503708984045</text><g class="legend" transform="translate(0,0)"><rect x="662" width="18" height="18" style="fill: #ca0020;"></rect><text x="656" y="9" dy=".35em" style="text-anchor: end;">Encoding 100K</text></g></g></svg>