<svg xmlns="http://www.w3.org/2000/svg" width="960" height="500" style="font-size: 24px;"><g transform="translate(120,20)"><g class="x axis" transform="translate(0,450)"><g class="tick" style="opacity: 1;" transform="translate(63,0)"><line y2="0" x2="0"></line><text dy=".71em" style="text-anchor: middle;" y="3" x="0">protobuf</text></g><g class="tick" style="opacity: 1;" transform="translate(174,0)"><line y2="0" x2="0"></line><text dy=".71em" style="text-anchor: middle;" y="3" x="0">msgpack</text></g><g class="tick" style="opacity: 1;" transform="translate(285,0)"><line y2="0" x2="0"></line><text dy=".71em" style="text-anchor: middle;" y="3" x="0">avro</text></g><g class="tick" style="opacity: 1;" transform="translate(396,0)"><line y2="0" x2="0"></line><text dy=".71em" style="text-anchor: middle;" y="3" x="0">bencode</text></g><g class="tick" style="opacity: 1;" transform="translate(507,0)"><line y2="0" x2="0"></line><text dy=".71em" style="text-anchor: middle;" y="3" x="0">bson</text></g><g class="tick" style="opacity: 1;" transform="translate(618,0)"><line y2="0" x2="0"></line><text dy=".71em" style="text-anchor: middle;" y="3" x="0">xml</text></g><path class="domain" d="M0,0V0H680V0"></path></g><g class="y axis"><g class="tick" style="opacity: 1;" transform="translate(0,450)"><line x2="-6" y2="0"></line><text dy=".32em" style="text-anchor: end;" x="-9" y="0">0.0000</text></g><g class="tick" style="opacity: 1;" transform="translate(0,375)"><line x2="-6" y2="0"></line><text dy=".32em" style="text-anchor: end;" x="-9" y="0">0.0005</text></g><g class="tick" style="opacity: 1;" transform="translate(0,300.00000000000006)"><line x2="-6" y2="0"></line><text dy=".32em" style="text-anchor: end;" x="-9" y="0">0.0010</text></g><g class="tick" style="opacity: 1;" transform="translate(0,225)"><line x2="-6" y2="0"></line><text dy=".32em" style="text-anchor: end;" x="-9" y="0">0.0015</text></g><g class="tick" style="opacity: 1;" transform="translate(0,150.00000000000003)"><line x2="-6" y2="0"></line><text dy=".32em" style="text-anchor: end;" x="-9" y="0">0.0020</text></g><g class="tick" style="opacity: 1;" transform="translate(0,74.99999999999999)"><line x2="-6" y2="0"></line><text dy=".32em" style="text-anchor: end;" x="-9" y="0">0.0025</text></g><g class="tick" style="opacity: 1;" transform="translate(0,0)"><line x2="-6" y2="0"></line><text dy=".32em" style="text-anchor: end;" x="-9" y="0">0.0030</text></g><path class="domain" d="M-6,0H0V450H-6"></path><text transform="rotate(-90)" y="6" dy=".71em" style="text-anchor: end; font-weight: bold;">ms</text></g><g class="g" transform="translate(13,0)"><rect width="100" x="0" style="fill: #ca0020;" y="361.18423069955446" height="29.766585134035893"></rect></g><g class="g" transform="translate(124,0)"><rect width="100" x="0" style="fill: #ca0020;" y="9.833089050387633" height="351.35114164916683"></rect></g><g class="g" transform="translate(235,0)"><rect width="100" x="0" style="fill: #ca0020;" y="361.18423069955446" height="41.929819582793584"></rect></g><g class="g" transform="translate(346,0)"><rect width="100" x="0" style="fill: #ca0020;" y="189.27898441860467" height="171.9052462809498"></rect></g><g class="g" transform="translate(457,0)"><rect width="100" x="0" style="fill: #ca0020;" y="117.04284767080748" height="244.141383028747"></rect></g><g class="g" transform="translate(568,0)"><rect width="100" x="0" style="fill: #ca0020;" y="361.18423069955446" height="87.42272325498652"></rect></g><rect width="680" height="2" style="fill: #0000FF;" y="360.18423069955446"></rect><text x="680" y="355.18423069955446">JSON 
 0.0005921051286696369</text><g class="legend" transform="translate(0,0)"><rect x="662" width="18" height="18" style="fill: #ca0020;"></rect><text x="656" y="9" dy=".35em" style="text-anchor: end;">Decoding 100K</text></g></g></svg>