<svg xmlns="http://www.w3.org/2000/svg" width="960" height="500" style="font-size: 24px;"><g transform="translate(120,20)"><g class="x axis" transform="translate(0,450)"><g class="tick" style="opacity: 1;" transform="translate(63,0)"><line y2="0" x2="0"></line><text dy=".71em" style="text-anchor: middle;" y="3" x="0">protobuf</text></g><g class="tick" style="opacity: 1;" transform="translate(174,0)"><line y2="0" x2="0"></line><text dy=".71em" style="text-anchor: middle;" y="3" x="0">msgpack</text></g><g class="tick" style="opacity: 1;" transform="translate(285,0)"><line y2="0" x2="0"></line><text dy=".71em" style="text-anchor: middle;" y="3" x="0">avro</text></g><g class="tick" style="opacity: 1;" transform="translate(396,0)"><line y2="0" x2="0"></line><text dy=".71em" style="text-anchor: middle;" y="3" x="0">bencode</text></g><g class="tick" style="opacity: 1;" transform="translate(507,0)"><line y2="0" x2="0"></line><text dy=".71em" style="text-anchor: middle;" y="3" x="0">bson</text></g><g class="tick" style="opacity: 1;" transform="translate(618,0)"><line y2="0" x2="0"></line><text dy=".71em" style="text-anchor: middle;" y="3" x="0">xml</text></g><path class="domain" d="M0,0V0H680V0"></path></g><g class="y axis"><g class="tick" style="opacity: 1;" transform="translate(0,450)"><line x2="-6" y2="0"></line><text dy=".32em" style="text-anchor: end;" x="-9" y="0">0.00000</text></g><g class="tick" style="opacity: 1;" transform="translate(0,393.75)"><line x2="-6" y2="0"></line><text dy=".32em" style="text-anchor: end;" x="-9" y="0">0.00005</text></g><g class="tick" style="opacity: 1;" transform="translate(0,337.5)"><line x2="-6" y2="0"></line><text dy=".32em" style="text-anchor: end;" x="-9" y="0">0.00010</text></g><g class="tick" style="opacity: 1;" transform="translate(0,281.25)"><line x2="-6" y2="0"></line><text dy=".32em" style="text-anchor: end;" x="-9" y="0">0.00015</text></g><g class="tick" style="opacity: 1;" transform="translate(0,225)"><line x2="-6" y2="0"></line><text dy=".32em" style="text-anchor: end;" x="-9" y="0">0.00020</text></g><g class="tick" style="opacity: 1;" transform="translate(0,168.75)"><line x2="-6" y2="0"></line><text dy=".32em" style="text-anchor: end;" x="-9" y="0">0.00025</text></g><g class="tick" style="opacity: 1;" transform="translate(0,112.50000000000006)"><line x2="-6" y2="0"></line><text dy=".32em" style="text-anchor: end;" x="-9" y="0">0.00030</text></g><g class="tick" style="opacity: 1;" transform="translate(0,56.25)"><line x2="-6" y2="0"></line><text dy=".32em" style="text-anchor: end;" x="-9" y="0">0.00035</text></g><g class="tick" style="opacity: 1;" transform="translate(0,0)"><line x2="-6" y2="0"></line><text dy=".32em" style="text-anchor: end;" x="-9" y="0">0.00040</text></g><path class="domain" d="M-6,0H0V450H-6"></path><text transform="rotate(-90)" y="6" dy=".71em" style="text-anchor: end; font-weight: bold;">ms</text></g><g class="g" transform="translate(13,0)"><rect width="100" x="0" style="fill: #ca0020;" y="380.7716938090176" height="19.430800097803456"></rect></g><g class="g" transform="translate(124,0)"><rect width="100" x="0" style="fill: #ca0020;" y="267.878915531312" height="132.3235783755091"></rect></g><g class="g" transform="translate(235,0)"><rect width="100" x="0" style="fill: #ca0020;" y="357.5435174531705" height="42.65897645365055"></rect></g><g class="g" transform="translate(346,0)"><rect width="100" x="0" style="fill: #ca0020;" y="34.225545555605585" height="365.97694835121547"></rect></g><g class="g" transform="translate(457,0)"><rect width="100" x="0" style="fill: #ca0020;" y="171.93506192497978" height="228.2674319818413"></rect></g><g class="g" transform="translate(568,0)"><rect width="100" x="0" style="fill: #ca0020;" y="400.2024939068211" height="45.4120928968274"></rect></g><rect width="680" height="2" style="fill: #0000FF;" y="399.2024939068211"></rect><text x="680" y="394.2024939068211">JSON 
 0.00004426444986060347</text><g class="legend" transform="translate(0,0)"><rect x="662" width="18" height="18" style="fill: #ca0020;"></rect><text x="656" y="9" dy=".35em" style="text-anchor: end;">Encoding 10K</text></g></g></svg>