<svg xmlns="http://www.w3.org/2000/svg" width="960" height="500" style="font-size: 24px;"><g transform="translate(120,20)"><g class="x axis" transform="translate(0,450)"><g class="tick" transform="translate(63,0)" style="opacity: 1;"><line y2="0" x2="0"></line><text dy=".71em" y="3" x="0" style="text-anchor: middle;">protobuf</text></g><g class="tick" transform="translate(174,0)" style="opacity: 1;"><line y2="0" x2="0"></line><text dy=".71em" y="3" x="0" style="text-anchor: middle;">avro</text></g><g class="tick" transform="translate(285,0)" style="opacity: 1;"><line y2="0" x2="0"></line><text dy=".71em" y="3" x="0" style="text-anchor: middle;">msgpack</text></g><g class="tick" transform="translate(396,0)" style="opacity: 1;"><line y2="0" x2="0"></line><text dy=".71em" y="3" x="0" style="text-anchor: middle;">bson</text></g><g class="tick" transform="translate(507,0)" style="opacity: 1;"><line y2="0" x2="0"></line><text dy=".71em" y="3" x="0" style="text-anchor: middle;">bencode</text></g><g class="tick" transform="translate(618,0)" style="opacity: 1;"><line y2="0" x2="0"></line><text dy=".71em" y="3" x="0" style="text-anchor: middle;">xml</text></g><path class="domain" d="M0,0V0H680V0"></path></g><g class="y axis" style="opacity: 1;"><g class="tick" transform="translate(0,450)" style="opacity: 1;"><line x2="-6" y2="0"></line><text dy=".32em" x="-9" y="0" style="text-anchor: end;">3,500</text></g><g class="tick" transform="translate(0,405)" style="opacity: 1;"><line x2="-6" y2="0"></line><text dy=".32em" x="-9" y="0" style="text-anchor: end;">3,600</text></g><g class="tick" transform="translate(0,360)" style="opacity: 1;"><line x2="-6" y2="0"></line><text dy=".32em" x="-9" y="0" style="text-anchor: end;">3,700</text></g><g class="tick" transform="translate(0,315)" style="opacity: 1;"><line x2="-6" y2="0"></line><text dy=".32em" x="-9" y="0" style="text-anchor: end;">3,800</text></g><g class="tick" transform="translate(0,270)" style="opacity: 1;"><line x2="-6" y2="0"></line><text dy=".32em" x="-9" y="0" style="text-anchor: end;">3,900</text></g><g class="tick" transform="translate(0,225)" style="opacity: 1;"><line x2="-6" y2="0"></line><text dy=".32em" x="-9" y="0" style="text-anchor: end;">4,000</text></g><g class="tick" transform="translate(0,180)" style="opacity: 1;"><line x2="-6" y2="0"></line><text dy=".32em" x="-9" y="0" style="text-anchor: end;">4,100</text></g><g class="tick" transform="translate(0,135.00000000000003)" style="opacity: 1;"><line x2="-6" y2="0"></line><text dy=".32em" x="-9" y="0" style="text-anchor: end;">4,200</text></g><g class="tick" transform="translate(0,89.99999999999999)" style="opacity: 1;"><line x2="-6" y2="0"></line><text dy=".32em" x="-9" y="0" style="text-anchor: end;">4,300</text></g><g class="tick" transform="translate(0,44.99999999999999)" style="opacity: 1;"><line x2="-6" y2="0"></line><text dy=".32em" x="-9" y="0" style="text-anchor: end;">4,400</text></g><g class="tick" transform="translate(0,0)" style="opacity: 1;"><line x2="-6" y2="0"></line><text dy=".32em" x="-9" y="0" style="text-anchor: end;">4,500</text></g><path class="domain" d="M-6,0H0V450H-6"></path><text transform="rotate(-90)" y="6" dy=".71em" style="text-anchor: end; font-weight: bold;">bytes</text></g><g class="g" transform="translate(13,0)"><rect width="100" x="0" y="293.85" height="16.649999999999977" style="fill: rgb(202, 0, 32);"></rect></g><g class="g" transform="translate(124,0)"><rect width="100" x="0" y="310.5" height="117.89999999999998" style="fill: rgb(202, 0, 32);"></rect></g><g class="g" transform="translate(235,0)"><rect width="100" x="0" y="229.05" height="81.44999999999999" style="fill: rgb(202, 0, 32);"></rect></g><g class="g" transform="translate(346,0)"><rect width="100" x="0" y="26.550000000000022" height="283.95" style="fill: rgb(202, 0, 32);"></rect></g><g class="g" transform="translate(457,0)"><rect width="100" x="0" y="309.15000000000003" height="1.349999999999966" style="fill: rgb(202, 0, 32);"></rect></g><g class="g" transform="translate(568,0)"><rect width="100" x="0" y="265.50000000000006" height="44.99999999999994" style="fill: rgb(202, 0, 32);"></rect></g><rect width="680" height="2" y="309.5" style="fill: rgb(0, 0, 255);"></rect><text x="680" y="304.5">JSON
 3810</text><g class="legend" transform="translate(0,0)" style="opacity: 1;"><rect x="662" width="18" height="18" style="fill: rgb(202, 0, 32);"></rect><text x="656" y="9" dy=".35em" style="text-anchor: end;">10K</text></g></g></svg>