<svg xmlns="http://www.w3.org/2000/svg" width="960" height="500" style="font-size: 24px;"><g transform="translate(120,20)"><g class="x axis" transform="translate(0,450)"><g class="tick" transform="translate(63,0)" style="opacity: 1;"><line y2="0" x2="0"></line><text dy=".71em" y="3" x="0" style="text-anchor: middle;">protobuf</text></g><g class="tick" transform="translate(174,0)" style="opacity: 1;"><line y2="0" x2="0"></line><text dy=".71em" y="3" x="0" style="text-anchor: middle;">avro</text></g><g class="tick" transform="translate(285,0)" style="opacity: 1;"><line y2="0" x2="0"></line><text dy=".71em" y="3" x="0" style="text-anchor: middle;">msgpack</text></g><g class="tick" transform="translate(396,0)" style="opacity: 1;"><line y2="0" x2="0"></line><text dy=".71em" y="3" x="0" style="text-anchor: middle;">bson</text></g><g class="tick" transform="translate(507,0)" style="opacity: 1;"><line y2="0" x2="0"></line><text dy=".71em" y="3" x="0" style="text-anchor: middle;">bencode</text></g><g class="tick" transform="translate(618,0)" style="opacity: 1;"><line y2="0" x2="0"></line><text dy=".71em" y="3" x="0" style="text-anchor: middle;">xml</text></g><path class="domain" d="M0,0V0H680V0"></path></g><g class="y axis" style="opacity: 1;"><g class="tick" transform="translate(0,450)" style="opacity: 1;"><line x2="-6" y2="0"></line><text dy=".32em" x="-9" y="0" style="text-anchor: end;">28,500</text></g><g class="tick" transform="translate(0,409.09090909090907)" style="opacity: 1;"><line x2="-6" y2="0"></line><text dy=".32em" x="-9" y="0" style="text-anchor: end;">29,000</text></g><g class="tick" transform="translate(0,368.18181818181813)" style="opacity: 1;"><line x2="-6" y2="0"></line><text dy=".32em" x="-9" y="0" style="text-anchor: end;">29,500</text></g><g class="tick" transform="translate(0,327.2727272727273)" style="opacity: 1;"><line x2="-6" y2="0"></line><text dy=".32em" x="-9" y="0" style="text-anchor: end;">30,000</text></g><g class="tick" transform="translate(0,286.3636363636364)" style="opacity: 1;"><line x2="-6" y2="0"></line><text dy=".32em" x="-9" y="0" style="text-anchor: end;">30,500</text></g><g class="tick" transform="translate(0,245.45454545454544)" style="opacity: 1;"><line x2="-6" y2="0"></line><text dy=".32em" x="-9" y="0" style="text-anchor: end;">31,000</text></g><g class="tick" transform="translate(0,204.54545454545456)" style="opacity: 1;"><line x2="-6" y2="0"></line><text dy=".32em" x="-9" y="0" style="text-anchor: end;">31,500</text></g><g class="tick" transform="translate(0,163.63636363636365)" style="opacity: 1;"><line x2="-6" y2="0"></line><text dy=".32em" x="-9" y="0" style="text-anchor: end;">32,000</text></g><g class="tick" transform="translate(0,122.72727272727272)" style="opacity: 1;"><line x2="-6" y2="0"></line><text dy=".32em" x="-9" y="0" style="text-anchor: end;">32,500</text></g><g class="tick" transform="translate(0,81.8181818181818)" style="opacity: 1;"><line x2="-6" y2="0"></line><text dy=".32em" x="-9" y="0" style="text-anchor: end;">33,000</text></g><g class="tick" transform="translate(0,40.90909090909092)" style="opacity: 1;"><line x2="-6" y2="0"></line><text dy=".32em" x="-9" y="0" style="text-anchor: end;">33,500</text></g><g class="tick" transform="translate(0,0)" style="opacity: 1;"><line x2="-6" y2="0"></line><text dy=".32em" x="-9" y="0" style="text-anchor: end;">34,000</text></g><path class="domain" d="M-6,0H0V450H-6"></path><text transform="rotate(-90)" y="6" dy=".71em" style="text-anchor: end; font-weight: bold;">bytes</text></g><g class="g" transform="translate(13,0)"><rect width="100" x="0" y="320.8909090909091" height="16.28181818181821" style="fill: rgb(202, 0, 32);"></rect></g><g class="g" transform="translate(124,0)"><rect width="100" x="0" y="337.1727272727273" height="108.49090909090904" style="fill: rgb(202, 0, 32);"></rect></g><g class="g" transform="translate(235,0)"><rect width="100" x="0" y="229.09090909090907" height="108.08181818181822" style="fill: rgb(202, 0, 32);"></rect></g><g class="g" transform="translate(346,0)"><rect width="100" x="0" y="16.281818181818192" height="320.8909090909091" style="fill: rgb(202, 0, 32);"></rect></g><g class="g" transform="translate(457,0)"><rect width="100" x="0" y="337.1727272727273" height="5.072727272727263" style="fill: rgb(202, 0, 32);"></rect></g><g class="g" transform="translate(568,0)"><rect width="100" x="0" y="259.6090909090909" height="77.56363636363636" style="fill: rgb(202, 0, 32);"></rect></g><rect width="680" height="2" y="336.1727272727273" style="fill: rgb(0, 0, 255);"></rect><text x="680" y="331.1727272727273">JSON
 29879</text><g class="legend" transform="translate(0,0)" style="opacity: 1;"><rect x="662" width="18" height="18" style="fill: rgb(202, 0, 32);"></rect><text x="656" y="9" dy=".35em" style="text-anchor: end;">100K</text></g></g></svg>