<svg xmlns="http://www.w3.org/2000/svg" width="960" height="500" style="font-size: 24px;"><g transform="translate(120,20)"><g class="x axis" transform="translate(0,450)"><g class="tick" transform="translate(55,0)" style="opacity: 1;"><line y2="0" x2="0"></line><text dy=".71em" y="3" x="0" style="text-anchor: middle;">avro</text></g><g class="tick" transform="translate(150,0)" style="opacity: 1;"><line y2="0" x2="0"></line><text dy=".71em" y="3" x="0" style="text-anchor: middle;">bencode</text></g><g class="tick" transform="translate(245,0)" style="opacity: 1;"><line y2="0" x2="0"></line><text dy=".71em" y="3" x="0" style="text-anchor: middle;">bson</text></g><g class="tick" transform="translate(340,0)" style="opacity: 1;"><line y2="0" x2="0"></line><text dy=".71em" y="3" x="0" style="text-anchor: middle;">gzip</text></g><g class="tick" transform="translate(435,0)" style="opacity: 1;"><line y2="0" x2="0"></line><text dy=".71em" y="3" x="0" style="text-anchor: middle;">msgpack</text></g><g class="tick" transform="translate(530,0)" style="opacity: 1;"><line y2="0" x2="0"></line><text dy=".71em" y="3" x="0" style="text-anchor: middle;">protobuf</text></g><g class="tick" transform="translate(625,0)" style="opacity: 1;"><line y2="0" x2="0"></line><text dy=".71em" y="3" x="0" style="text-anchor: middle;">xml</text></g><path class="domain" d="M0,0V0H680V0"></path></g><g class="y axis" style="opacity: 1;"><g class="tick" transform="translate(0,450)" style="opacity: 1;"><line x2="-6" y2="0"></line><text dy=".32em" x="-9" y="0" style="text-anchor: end;">0</text></g><g class="tick" transform="translate(0,406.4362953425559)" style="opacity: 1;"><line x2="-6" y2="0"></line><text dy=".32em" x="-9" y="0" style="text-anchor: end;">10,000</text></g><g class="tick" transform="translate(0,362.87259068511185)" style="opacity: 1;"><line x2="-6" y2="0"></line><text dy=".32em" x="-9" y="0" style="text-anchor: end;">20,000</text></g><g class="tick" transform="translate(0,319.30888602766777)" style="opacity: 1;"><line x2="-6" y2="0"></line><text dy=".32em" x="-9" y="0" style="text-anchor: end;">30,000</text></g><g class="tick" transform="translate(0,275.74518137022375)" style="opacity: 1;"><line x2="-6" y2="0"></line><text dy=".32em" x="-9" y="0" style="text-anchor: end;">40,000</text></g><g class="tick" transform="translate(0,232.18147671277964)" style="opacity: 1;"><line x2="-6" y2="0"></line><text dy=".32em" x="-9" y="0" style="text-anchor: end;">50,000</text></g><g class="tick" transform="translate(0,188.61777205533556)" style="opacity: 1;"><line x2="-6" y2="0"></line><text dy=".32em" x="-9" y="0" style="text-anchor: end;">60,000</text></g><g class="tick" transform="translate(0,145.05406739789152)" style="opacity: 1;"><line x2="-6" y2="0"></line><text dy=".32em" x="-9" y="0" style="text-anchor: end;">70,000</text></g><g class="tick" transform="translate(0,101.49036274044744)" style="opacity: 1;"><line x2="-6" y2="0"></line><text dy=".32em" x="-9" y="0" style="text-anchor: end;">80,000</text></g><g class="tick" transform="translate(0,57.92665808300338)" style="opacity: 1;"><line x2="-6" y2="0"></line><text dy=".32em" x="-9" y="0" style="text-anchor: end;">90,000</text></g><g class="tick" transform="translate(0,14.362953425559317)" style="opacity: 1;"><line x2="-6" y2="0"></line><text dy=".32em" x="-9" y="0" style="text-anchor: end;">100,000</text></g><path class="domain" d="M-6,0H0V450H-6"></path><text transform="rotate(-90)" y="6" dy=".71em" style="text-anchor: end; font-weight: bold;">bytes</text></g><g class="g" transform="translate(12,0)"><rect width="86" x="0" y="233.49710059343448" height="216.50289940656552" style="fill: rgb(202, 0, 32);"></rect></g><g class="g" transform="translate(107,0)"><rect width="86" x="0" y="384.2797951537799" height="65.7202048462201" style="fill: rgb(202, 0, 32);"></rect></g><g class="g" transform="translate(202,0)"><rect width="86" x="0" y="188.5611392392809" height="261.4388607607191" style="fill: rgb(202, 0, 32);"></rect></g><g class="g" transform="translate(297,0)"><rect width="86" x="0" y="0" height="450" style="fill: rgb(202, 0, 32);"></rect></g><g class="g" transform="translate(392,0)"><rect width="86" x="0" y="141.53412006157004" height="308.46587993842996" style="fill: rgb(202, 0, 32);"></rect></g><g class="g" transform="translate(487,0)"><rect width="86" x="0" y="242.04865581769073" height="207.95134418230927" style="fill: rgb(202, 0, 32);"></rect></g><g class="g" transform="translate(582,0)"><rect width="86" x="0" y="199.80057504090146" height="250.19942495909854" style="fill: rgb(202, 0, 32);"></rect></g><g class="legend" transform="translate(0,0)" style="opacity: 1;"><rect x="662" width="18" height="18" style="fill: rgb(202, 0, 32);"></rect><text x="656" y="9" dy=".35em" style="text-anchor: end;">Gzipped</text></g></g></svg>