<svg xmlns="http://www.w3.org/2000/svg" width="960" height="500" style="font-size: 24px;"><g transform="translate(120,20)"><g class="x axis" transform="translate(0,450)"><g class="tick" transform="translate(63,0)" style="opacity: 1;"><line y2="0" x2="0"></line><text dy=".71em" y="3" x="0" style="text-anchor: middle;">protobuf</text></g><g class="tick" transform="translate(174,0)" style="opacity: 1;"><line y2="0" x2="0"></line><text dy=".71em" y="3" x="0" style="text-anchor: middle;">avro</text></g><g class="tick" transform="translate(285,0)" style="opacity: 1;"><line y2="0" x2="0"></line><text dy=".71em" y="3" x="0" style="text-anchor: middle;">msgpack</text></g><g class="tick" transform="translate(396,0)" style="opacity: 1;"><line y2="0" x2="0"></line><text dy=".71em" y="3" x="0" style="text-anchor: middle;">bson</text></g><g class="tick" transform="translate(507,0)" style="opacity: 1;"><line y2="0" x2="0"></line><text dy=".71em" y="3" x="0" style="text-anchor: middle;">bencode</text></g><g class="tick" transform="translate(618,0)" style="opacity: 1;"><line y2="0" x2="0"></line><text dy=".71em" y="3" x="0" style="text-anchor: middle;">xml</text></g><path class="domain" d="M0,0V0H680V0"></path></g><g class="y axis" style="opacity: 1;"><g class="tick" transform="translate(0,450)" style="opacity: 1;"><line x2="-6" y2="0"></line><text dy=".32em" x="-9" y="0" style="text-anchor: end;">70,000</text></g><g class="tick" transform="translate(0,412.5)" style="opacity: 1;"><line x2="-6" y2="0"></line><text dy=".32em" x="-9" y="0" style="text-anchor: end;">75,000</text></g><g class="tick" transform="translate(0,375)" style="opacity: 1;"><line x2="-6" y2="0"></line><text dy=".32em" x="-9" y="0" style="text-anchor: end;">80,000</text></g><g class="tick" transform="translate(0,337.5)" style="opacity: 1;"><line x2="-6" y2="0"></line><text dy=".32em" x="-9" y="0" style="text-anchor: end;">85,000</text></g><g class="tick" transform="translate(0,300.00000000000006)" style="opacity: 1;"><line x2="-6" y2="0"></line><text dy=".32em" x="-9" y="0" style="text-anchor: end;">90,000</text></g><g class="tick" transform="translate(0,262.49999999999994)" style="opacity: 1;"><line x2="-6" y2="0"></line><text dy=".32em" x="-9" y="0" style="text-anchor: end;">95,000</text></g><g class="tick" transform="translate(0,225)" style="opacity: 1;"><line x2="-6" y2="0"></line><text dy=".32em" x="-9" y="0" style="text-anchor: end;">100,000</text></g><g class="tick" transform="translate(0,187.49999999999997)" style="opacity: 1;"><line x2="-6" y2="0"></line><text dy=".32em" x="-9" y="0" style="text-anchor: end;">105,000</text></g><g class="tick" transform="translate(0,150.00000000000003)" style="opacity: 1;"><line x2="-6" y2="0"></line><text dy=".32em" x="-9" y="0" style="text-anchor: end;">110,000</text></g><g class="tick" transform="translate(0,112.5)" style="opacity: 1;"><line x2="-6" y2="0"></line><text dy=".32em" x="-9" y="0" style="text-anchor: end;">115,000</text></g><g class="tick" transform="translate(0,74.99999999999999)" style="opacity: 1;"><line x2="-6" y2="0"></line><text dy=".32em" x="-9" y="0" style="text-anchor: end;">120,000</text></g><g class="tick" transform="translate(0,37.500000000000014)" style="opacity: 1;"><line x2="-6" y2="0"></line><text dy=".32em" x="-9" y="0" style="text-anchor: end;">125,000</text></g><g class="tick" transform="translate(0,0)" style="opacity: 1;"><line x2="-6" y2="0"></line><text dy=".32em" x="-9" y="0" style="text-anchor: end;">130,000</text></g><path class="domain" d="M-6,0H0V450H-6"></path><text transform="rotate(-90)" y="6" dy=".71em" style="text-anchor: end; font-weight: bold;">bytes</text></g><g class="g" transform="translate(13,0)"><rect width="100" x="0" y="202.16250000000002" height="189.075" style="fill: rgb(202, 0, 32);"></rect></g><g class="g" transform="translate(124,0)"><rect width="100" x="0" y="202.16250000000002" height="235.58999999999997" style="fill: rgb(202, 0, 32);"></rect></g><g class="g" transform="translate(235,0)"><rect width="100" x="0" y="202.16250000000002" height="87.65999999999997" style="fill: rgb(202, 0, 32);"></rect></g><g class="g" transform="translate(346,0)"><rect width="100" x="0" y="151.425" height="50.73750000000001" style="fill: rgb(202, 0, 32);"></rect></g><g class="g" transform="translate(457,0)"><rect width="100" x="0" y="202.16250000000002" height="34.3725" style="fill: rgb(202, 0, 32);"></rect></g><g class="g" transform="translate(568,0)"><rect width="100" x="0" y="23.67749999999999" height="178.48500000000004" style="fill: rgb(202, 0, 32);"></rect></g><rect width="680" height="2" y="201.16250000000002" style="fill: rgb(0, 0, 255);"></rect><text x="680" y="196.16250000000002">JSON
 103045</text><g class="legend" transform="translate(0,0)" style="opacity: 1;"><rect x="662" width="18" height="18" style="fill: rgb(202, 0, 32);"></rect><text x="656" y="9" dy=".35em" style="text-anchor: end;">100K</text></g></g></svg>