<svg xmlns="http://www.w3.org/2000/svg" width="960" height="500" style="font-size: 24px;"><g transform="translate(120,20)"><g class="x axis" transform="translate(0,450)"><g class="tick" transform="translate(63,0)" style="opacity: 1;"><line y2="0" x2="0"></line><text dy=".71em" y="3" x="0" style="text-anchor: middle;">protobuf</text></g><g class="tick" transform="translate(174,0)" style="opacity: 1;"><line y2="0" x2="0"></line><text dy=".71em" y="3" x="0" style="text-anchor: middle;">avro</text></g><g class="tick" transform="translate(285,0)" style="opacity: 1;"><line y2="0" x2="0"></line><text dy=".71em" y="3" x="0" style="text-anchor: middle;">msgpack</text></g><g class="tick" transform="translate(396,0)" style="opacity: 1;"><line y2="0" x2="0"></line><text dy=".71em" y="3" x="0" style="text-anchor: middle;">bson</text></g><g class="tick" transform="translate(507,0)" style="opacity: 1;"><line y2="0" x2="0"></line><text dy=".71em" y="3" x="0" style="text-anchor: middle;">bencode</text></g><g class="tick" transform="translate(618,0)" style="opacity: 1;"><line y2="0" x2="0"></line><text dy=".71em" y="3" x="0" style="text-anchor: middle;">xml</text></g><path class="domain" d="M0,0V0H680V0"></path></g><g class="y axis" style="opacity: 1;"><g class="tick" transform="translate(0,450)" style="opacity: 1;"><line x2="-6" y2="0"></line><text dy=".32em" x="-9" y="0" style="text-anchor: end;">7,500</text></g><g class="tick" transform="translate(0,412.5)" style="opacity: 1;"><line x2="-6" y2="0"></line><text dy=".32em" x="-9" y="0" style="text-anchor: end;">8,000</text></g><g class="tick" transform="translate(0,375)" style="opacity: 1;"><line x2="-6" y2="0"></line><text dy=".32em" x="-9" y="0" style="text-anchor: end;">8,500</text></g><g class="tick" transform="translate(0,337.5)" style="opacity: 1;"><line x2="-6" y2="0"></line><text dy=".32em" x="-9" y="0" style="text-anchor: end;">9,000</text></g><g class="tick" transform="translate(0,300.00000000000006)" style="opacity: 1;"><line x2="-6" y2="0"></line><text dy=".32em" x="-9" y="0" style="text-anchor: end;">9,500</text></g><g class="tick" transform="translate(0,262.49999999999994)" style="opacity: 1;"><line x2="-6" y2="0"></line><text dy=".32em" x="-9" y="0" style="text-anchor: end;">10,000</text></g><g class="tick" transform="translate(0,225)" style="opacity: 1;"><line x2="-6" y2="0"></line><text dy=".32em" x="-9" y="0" style="text-anchor: end;">10,500</text></g><g class="tick" transform="translate(0,187.49999999999997)" style="opacity: 1;"><line x2="-6" y2="0"></line><text dy=".32em" x="-9" y="0" style="text-anchor: end;">11,000</text></g><g class="tick" transform="translate(0,150.00000000000003)" style="opacity: 1;"><line x2="-6" y2="0"></line><text dy=".32em" x="-9" y="0" style="text-anchor: end;">11,500</text></g><g class="tick" transform="translate(0,112.5)" style="opacity: 1;"><line x2="-6" y2="0"></line><text dy=".32em" x="-9" y="0" style="text-anchor: end;">12,000</text></g><g class="tick" transform="translate(0,74.99999999999999)" style="opacity: 1;"><line x2="-6" y2="0"></line><text dy=".32em" x="-9" y="0" style="text-anchor: end;">12,500</text></g><g class="tick" transform="translate(0,37.500000000000014)" style="opacity: 1;"><line x2="-6" y2="0"></line><text dy=".32em" x="-9" y="0" style="text-anchor: end;">13,000</text></g><g class="tick" transform="translate(0,0)" style="opacity: 1;"><line x2="-6" y2="0"></line><text dy=".32em" x="-9" y="0" style="text-anchor: end;">13,500</text></g><path class="domain" d="M-6,0H0V450H-6"></path><text transform="rotate(-90)" y="6" dy=".71em" style="text-anchor: end; font-weight: bold;">bytes</text></g><g class="g" transform="translate(13,0)"><rect width="100" x="0" y="199.425" height="197.325" style="fill: rgb(202, 0, 32);"></rect></g><g class="g" transform="translate(124,0)"><rect width="100" x="0" y="199.425" height="245.925" style="fill: rgb(202, 0, 32);"></rect></g><g class="g" transform="translate(235,0)"><rect width="100" x="0" y="199.425" height="91.34999999999997" style="fill: rgb(202, 0, 32);"></rect></g><g class="g" transform="translate(346,0)"><rect width="100" x="0" y="146.54999999999998" height="52.87500000000003" style="fill: rgb(202, 0, 32);"></rect></g><g class="g" transform="translate(457,0)"><rect width="100" x="0" y="199.425" height="35.62499999999997" style="fill: rgb(202, 0, 32);"></rect></g><g class="g" transform="translate(568,0)"><rect width="100" x="0" y="14.174999999999988" height="185.25000000000003" style="fill: rgb(202, 0, 32);"></rect></g><rect width="680" height="2" y="198.425" style="fill: rgb(0, 0, 255);"></rect><text x="680" y="193.425">JSON
 10841</text><g class="legend" transform="translate(0,0)"><rect x="662" width="18" height="18" style="fill: rgb(202, 0, 32);"></rect><text x="656" y="9" dy=".35em" style="text-anchor: end;">10K</text></g></g></svg>