<svg xmlns="http://www.w3.org/2000/svg" width="960" height="500" style="font-size: 24px;"><g transform="translate(120,20)"><g class="x axis" transform="translate(0,450)"><g class="tick" style="opacity: 1;" transform="translate(63,0)"><line y2="0" x2="0"></line><text dy=".71em" style="text-anchor: middle;" y="3" x="0">protobuf</text></g><g class="tick" style="opacity: 1;" transform="translate(174,0)"><line y2="0" x2="0"></line><text dy=".71em" style="text-anchor: middle;" y="3" x="0">msgpack</text></g><g class="tick" style="opacity: 1;" transform="translate(285,0)"><line y2="0" x2="0"></line><text dy=".71em" style="text-anchor: middle;" y="3" x="0">avro</text></g><g class="tick" style="opacity: 1;" transform="translate(396,0)"><line y2="0" x2="0"></line><text dy=".71em" style="text-anchor: middle;" y="3" x="0">bencode</text></g><g class="tick" style="opacity: 1;" transform="translate(507,0)"><line y2="0" x2="0"></line><text dy=".71em" style="text-anchor: middle;" y="3" x="0">bson</text></g><g class="tick" style="opacity: 1;" transform="translate(618,0)"><line y2="0" x2="0"></line><text dy=".71em" style="text-anchor: middle;" y="3" x="0">xml</text></g><path class="domain" d="M0,0V0H680V0"></path></g><g class="y axis"><g class="tick" style="opacity: 1;" transform="translate(0,450)"><line x2="-6" y2="0"></line><text dy=".32em" style="text-anchor: end;" x="-9" y="0">0.00000</text></g><g class="tick" style="opacity: 1;" transform="translate(0,375)"><line x2="-6" y2="0"></line><text dy=".32em" style="text-anchor: end;" x="-9" y="0">0.00005</text></g><g class="tick" style="opacity: 1;" transform="translate(0,300.00000000000006)"><line x2="-6" y2="0"></line><text dy=".32em" style="text-anchor: end;" x="-9" y="0">0.00010</text></g><g class="tick" style="opacity: 1;" transform="translate(0,225.00000000000006)"><line x2="-6" y2="0"></line><text dy=".32em" style="text-anchor: end;" x="-9" y="0">0.00015</text></g><g class="tick" style="opacity: 1;" transform="translate(0,150.00000000000003)"><line x2="-6" y2="0"></line><text dy=".32em" style="text-anchor: end;" x="-9" y="0">0.00020</text></g><g class="tick" style="opacity: 1;" transform="translate(0,75.00000000000003)"><line x2="-6" y2="0"></line><text dy=".32em" style="text-anchor: end;" x="-9" y="0">0.00025</text></g><g class="tick" style="opacity: 1;" transform="translate(0,9.992007221626409e-14)"><line x2="-6" y2="0"></line><text dy=".32em" style="text-anchor: end;" x="-9" y="0">0.00030</text></g><path class="domain" d="M-6,0H0V450H-6"></path><text transform="rotate(-90)" y="6" dy=".71em" style="text-anchor: end; font-weight: bold;">ms</text></g><g class="g" transform="translate(13,0)"><rect width="100" x="0" style="fill: #ca0020;" y="355.60045632767964" height="28.64919668133126"></rect></g><g class="g" transform="translate(124,0)"><rect width="100" x="0" style="fill: #ca0020;" y="5.406219791027822" height="350.19423653665183"></rect></g><g class="g" transform="translate(235,0)"><rect width="100" x="0" style="fill: #ca0020;" y="355.60045632767964" height="45.202173718470476"></rect></g><g class="g" transform="translate(346,0)"><rect width="100" x="0" style="fill: #ca0020;" y="162.8088633008418" height="192.79159302683783"></rect></g><g class="g" transform="translate(457,0)"><rect width="100" x="0" style="fill: #ca0020;" y="53.80133225993386" height="301.79912406774577"></rect></g><g class="g" transform="translate(568,0)"><rect width="100" x="0" style="fill: #ca0020;" y="355.60045632767964" height="77.93234438749136"></rect></g><rect width="680" height="2" style="fill: #0000FF;" y="354.60045632767964"></rect><text x="680" y="349.60045632767964">JSON 
 0.00006293302911488024</text><g class="legend" transform="translate(0,0)"><rect x="662" width="18" height="18" style="fill: #ca0020;"></rect><text x="656" y="9" dy=".35em" style="text-anchor: end;">Decoding 10K</text></g></g></svg>